<svg xmlns="http://www.w3.org/2000/svg" width="149" height="53" fill="none" viewBox="0 0 149 53">
  <g clip-path="url(#a)">
    <g filter="url(#b)">
      <path fill="#3A3244" d="M149 49.716c0 2.835-1.918 5.131-4.291 5.131H4.296C1.925 54.847 0 52.551 0 49.716V8.794c0-2.833 1.925-5.138 4.296-5.138h140.412c2.374 0 4.291 2.305 4.291 5.138L149 49.716Z"/>
    </g>
    <path fill="#fff" d="M52.144 22.754h-.958l-.524-1.76H48.84l-.5 1.76h-.932l1.806-5.99h1.114l1.816 5.99Zm-1.64-2.498-.474-1.564c-.05-.16-.141-.533-.283-1.128h-.017c-.058.257-.141.631-.267 1.128l-.465 1.564h1.506Zm6.154-1.821-1.53 4.319h-.874l-1.482-4.319h.965l.691 2.284c.117.382.217.746.291 1.093h.025c.067-.31.166-.675.29-1.093l.683-2.284h.941Zm3.26 4.319-.067-.497h-.025c-.274.4-.673.595-1.181.595-.724 0-1.24-.542-1.24-1.271 0-1.066.865-1.618 2.363-1.618v-.08c0-.568-.283-.853-.84-.853-.4 0-.75.107-1.056.32l-.183-.63c.375-.25.84-.374 1.39-.374 1.056 0 1.59.595 1.59 1.787v1.59c0 .437.016.774.058 1.032l-.809-.001Zm-.125-2.151c-.999 0-1.498.258-1.498.87 0 .454.258.676.616.676a.886.886 0 0 0 .882-.88v-.666Zm2.877-2.88c-.3 0-.533-.249-.533-.578 0-.328.241-.568.55-.568.308 0 .557.24.549.568 0 .348-.233.578-.566.578Zm.466 5.031h-.899v-4.319h.899v4.319Zm2.495 0h-.899v-6.3h.899v6.3Zm3.819 0-.067-.497h-.025c-.274.4-.674.595-1.181.595-.724 0-1.24-.542-1.24-1.271 0-1.066.865-1.618 2.363-1.618v-.08c0-.568-.283-.853-.84-.853-.4 0-.75.107-1.057.32l-.183-.631c.374-.25.84-.374 1.39-.374 1.056 0 1.589.595 1.589 1.787v1.59c0 .437.018.775.058 1.032h-.807Zm-.126-2.151c-.998 0-1.497.258-1.497.87 0 .454.258.676.615.676a.886.886 0 0 0 .883-.88v-.666Zm4.516 2.249c-.574 0-.998-.258-1.272-.765h-.018l-.051.667h-.766c.025-.346.033-.738.033-1.164v-5.137h.9v2.614h.017c.266-.48.698-.72 1.29-.72.973 0 1.656.89 1.656 2.186 0 1.34-.758 2.319-1.79 2.319Zm-.183-3.751c-.517 0-.99.48-.99 1.146v.756c0 .595.425 1.084.974 1.084.674 0 1.074-.586 1.074-1.52-.001-.87-.418-1.466-1.058-1.466Zm4.199 3.653h-.898v-6.3h.898v6.3Zm4.89-1.929H80.05c.018.818.523 1.28 1.273 1.28.4 0 .765-.072 1.09-.205l.14.667c-.383.178-.832.267-1.356.267-1.266 0-2.014-.854-2.014-2.177 0-1.325.766-2.32 1.912-2.32 1.032 0 1.682.818 1.682 2.053a1.93 1.93 0 0 1-.03.435Zm-.823-.684c0-.667-.317-1.137-.89-1.137-.517 0-.924.48-.984 1.137h1.874Zm6.27 2.711c-1.182 0-1.947-.942-1.947-2.222 0-1.333.782-2.284 2.015-2.284 1.163 0 1.947.898 1.947 2.214 0 1.35-.808 2.292-2.015 2.292Zm.034-3.804c-.649 0-1.065.648-1.065 1.555 0 .889.425 1.537 1.057 1.537.632 0 1.055-.693 1.055-1.556 0-.879-.415-1.536-1.047-1.536Zm6.811 3.706h-.897v-2.48c0-.764-.275-1.147-.816-1.147-.532 0-.9.49-.9 1.058v2.569h-.897v-3.085c0-.381-.01-.79-.033-1.235h.79l.042.667h.025c.24-.462.732-.756 1.281-.756.848 0 1.405.694 1.405 1.822v2.587Zm5.879-3.6h-.988v2.098c0 .534.174.8.523.8.158 0 .292-.018.399-.044l.025.729c-.175.071-.409.107-.698.107-.708 0-1.13-.418-1.13-1.511v-2.178h-.59v-.72h.59v-.791l.88-.285v1.075h.989v.72Zm4.759 3.6h-.9v-2.462c0-.773-.274-1.164-.815-1.164-.466 0-.898.338-.898 1.022v2.604h-.899v-6.3h.899v2.594h.018c.282-.471.691-.703 1.214-.703.857 0 1.381.71 1.381 1.84v2.569Zm4.591-1.929h-2.696c.017.818.523 1.28 1.272 1.28.4 0 .766-.072 1.09-.205l.14.667c-.382.178-.832.267-1.356.267-1.265 0-2.014-.854-2.014-2.177 0-1.325.767-2.32 1.913-2.32 1.031 0 1.681.818 1.681 2.053.003.169-.005.32-.03.435Zm-.824-.684c0-.667-.315-1.137-.89-1.137-.517 0-.923.48-.982 1.137h1.872ZM50.427 32.72h2.835v3.585a8.97 8.97 0 0 1-1.236.288 9.1 9.1 0 0 1-1.433.102c-.772 0-1.426-.143-1.963-.43a2.87 2.87 0 0 1-1.215-1.254c-.276-.55-.415-1.213-.415-1.988 0-.745.154-1.391.462-1.938.308-.55.756-.975 1.345-1.274.588-.303 1.301-.455 2.139-.455.412 0 .81.04 1.194.118a5.54 5.54 0 0 1 1.065.312l-.437.967a5.134 5.134 0 0 0-.861-.288 4.148 4.148 0 0 0-.992-.117c-.544 0-1.013.11-1.407.332a2.253 2.253 0 0 0-.904.937c-.21.4-.316.874-.316 1.421 0 .53.084.996.254 1.397.17.4.434.712.794.937.364.221.833.332 1.407.332.288 0 .532-.014.733-.044.2-.03.386-.062.555-.097v-1.841h-1.604V32.72Zm9.297 1.163c0 .449-.063.848-.187 1.196a2.37 2.37 0 0 1-.545.884c-.24.237-.527.42-.862.547a3.273 3.273 0 0 1-1.138.185c-.394 0-.756-.062-1.085-.185a2.489 2.489 0 0 1-.856-.547 2.48 2.48 0 0 1-.556-.884 3.372 3.372 0 0 1-.197-1.196c0-.596.109-1.1.327-1.514.221-.416.536-.734.945-.952.408-.218.895-.327 1.459-.327.53 0 .997.109 1.402.327.405.218.721.535.95.952.228.417.343.921.343 1.514Zm-4.17 0c0 .394.05.73.15 1.01.105.28.264.495.479.645.214.147.491.22.83.22.34 0 .616-.073.831-.22a1.29 1.29 0 0 0 .472-.644c.1-.28.151-.617.151-1.011 0-.394-.05-.728-.15-1.001a1.236 1.236 0 0 0-.473-.63c-.215-.147-.493-.22-.836-.22-.505 0-.874.16-1.106.479-.232.319-.348.776-.348 1.372Zm10.341 0c0 .449-.063.848-.187 1.196a2.367 2.367 0 0 1-.545.884c-.24.237-.526.42-.862.547a3.272 3.272 0 0 1-1.137.185 3.06 3.06 0 0 1-1.086-.185 2.49 2.49 0 0 1-.856-.547 2.48 2.48 0 0 1-.556-.884 3.37 3.37 0 0 1-.197-1.196c0-.596.109-1.1.327-1.514a2.26 2.26 0 0 1 .945-.952c.409-.218.895-.327 1.459-.327.53 0 .997.109 1.402.327.405.218.722.535.95.952.228.417.343.921.343 1.514Zm-4.17 0c0 .394.05.73.151 1.01.104.28.263.495.478.645.214.147.491.22.83.22.34 0 .617-.073.831-.22a1.29 1.29 0 0 0 .473-.644c.1-.28.15-.617.15-1.011 0-.394-.05-.728-.15-1.001a1.235 1.235 0 0 0-.473-.63c-.214-.147-.493-.22-.836-.22-.505 0-.874.16-1.106.479-.232.319-.348.776-.348 1.372ZM68.618 39c-.778 0-1.376-.132-1.791-.395-.415-.264-.623-.634-.623-1.109 0-.332.11-.614.332-.845.222-.228.538-.385.95-.473a1.051 1.051 0 0 1-.405-.303.73.73 0 0 1-.166-.464c0-.202.06-.374.182-.517.121-.144.303-.282.545-.416a1.56 1.56 0 0 1-.727-.585 1.71 1.71 0 0 1-.27-.962c0-.391.089-.723.265-.996.177-.277.434-.487.774-.63.339-.147.75-.22 1.23-.22.104 0 .217.006.338.02.124.01.239.022.342.039.108.013.189.027.244.044h1.989v.64l-.976.17a1.532 1.532 0 0 1 .306.937c0 .56-.206 1.002-.618 1.324-.408.319-.972.478-1.692.478a6.138 6.138 0 0 1-.504-.039.927.927 0 0 0-.285.24.457.457 0 0 0-.1.288c0 .087.034.16.1.214a.69.69 0 0 0 .29.118c.132.026.291.039.478.039h.992c.63 0 1.11.125 1.443.376.332.25.499.618.499 1.103 0 .615-.27 1.089-.81 1.421-.54.335-1.318.503-2.332.503Zm.047-.806c.426 0 .784-.039 1.075-.117.29-.078.51-.19.66-.337a.687.687 0 0 0 .222-.513c0-.175-.046-.31-.14-.405-.093-.094-.233-.16-.42-.195a3.773 3.773 0 0 0-.696-.054h-.903a1.69 1.69 0 0 0-.598.098.92.92 0 0 0-.405.293.753.753 0 0 0-.14.459c0 .247.116.438.348.571.235.134.568.2.997.2Zm.239-4.209c.356 0 .621-.09.794-.273.173-.186.26-.446.26-.781 0-.365-.09-.638-.27-.82-.177-.183-.44-.274-.79-.274-.342 0-.603.093-.783.278-.177.186-.265.46-.265.825 0 .33.088.586.265.772.18.182.443.273.789.273Zm4.878 2.613h-1.225V29h1.225v7.598Zm3.715-5.508c.513 0 .952.1 1.32.298.366.198.648.48.846.844.197.365.296.801.296 1.309v.615H76.12c.014.524.163.928.447 1.211.287.283.689.425 1.205.425.367 0 .695-.033.986-.098a5.72 5.72 0 0 0 .909-.297v.932c-.288.127-.58.22-.878.278a5.62 5.62 0 0 1-1.07.088c-.564 0-1.06-.102-1.49-.307a2.33 2.33 0 0 1-1.002-.928c-.238-.41-.358-.92-.358-1.528 0-.606.11-1.12.327-1.543a2.27 2.27 0 0 1 .92-.967c.394-.221.854-.332 1.38-.332Zm0 .864c-.384 0-.695.117-.934.352-.236.234-.374.578-.416 1.03h2.617a1.794 1.794 0 0 0-.145-.718 1.056 1.056 0 0 0-.415-.488c-.184-.117-.42-.176-.707-.176Zm8.293-2.495c.98 0 1.694.189 2.144.566.45.378.675.907.675 1.587 0 .31-.052.604-.156.884a1.85 1.85 0 0 1-.498.737c-.232.212-.538.38-.92.503-.376.124-.842.186-1.396.186h-.81v2.676h-1.246v-7.139h2.207Zm-.083.972h-.878v2.514h.68c.392 0 .724-.042.997-.127.274-.087.481-.226.623-.415.142-.188.213-.438.213-.747 0-.413-.133-.72-.4-.923-.263-.201-.674-.302-1.235-.302Zm5.2 6.167h-1.225V29h1.225v7.598Zm3.679-5.508c.727 0 1.275.151 1.646.454.374.303.56.775.56 1.416v3.638h-.867l-.233-.767h-.042c-.162.195-.33.356-.503.483a1.805 1.805 0 0 1-.603.284c-.225.065-.5.097-.825.097-.343 0-.65-.058-.92-.175a1.431 1.431 0 0 1-.638-.547c-.156-.245-.234-.554-.234-.928 0-.557.22-.975.66-1.255.443-.28 1.111-.434 2.004-.464l.997-.034v-.283c0-.375-.093-.642-.28-.801-.184-.16-.444-.24-.78-.24-.287 0-.565.04-.835.118-.27.078-.533.174-.79.288l-.394-.81a4.711 4.711 0 0 1 2.077-.474Zm.997 2.925-.743.024c-.609.02-1.036.117-1.282.293a.841.841 0 0 0-.369.723c0 .267.085.462.255.586.17.12.392.18.67.18.422 0 .771-.112 1.048-.337.28-.227.42-.561.42-1v-.47Zm1.732-2.823h1.329l1.178 3.086c.052.14.1.279.14.415.046.134.084.266.115.396.034.13.062.26.083.39h.031c.035-.169.083-.358.145-.566.066-.211.139-.423.219-.635l1.131-3.086H103l-2.466 6.148a3.31 3.31 0 0 1-.525.898 1.99 1.99 0 0 1-.727.567c-.28.13-.6.195-.96.195-.173 0-.324-.01-.452-.03a3.9 3.9 0 0 1-.327-.053v-.918a2.938 2.938 0 0 0 .618.063c.218 0 .407-.04.566-.122.16-.081.294-.197.405-.346a2.09 2.09 0 0 0 .275-.503l.203-.508-2.295-5.39ZM33.82 33.605l-3.98-4.354 3.98-4.354 3.872 2.444c1.345.848 1.345 2.972 0 3.82l-3.872 2.444Zm-.904.571-3.789-4.145-12.91 14.123c.43.075.891-.001 1.319-.27l15.38-9.708Zm-17.679 9.491 13.178-14.416-13.178-14.417c-.435.395-.725.99-.725 1.695v25.444c0 .705.29 1.3.725 1.694Zm.98-29.319c.43-.076.891.001 1.319.27l15.38 9.708-3.789 4.145-12.91-14.123Z"/>
  </g>
  <defs>
    <clipPath id="a">
      <path fill="#fff" d="M0 0h149v53H0z"/>
    </clipPath>
    <filter id="b" width="357" height="259.188" x="-104" y="-100.344" color-interpolation-filters="sRGB" filterUnits="userSpaceOnUse">
      <feFlood flood-opacity="0" result="BackgroundImageFix"/>
      <feGaussianBlur in="BackgroundImageFix" stdDeviation="52"/>
      <feComposite in2="SourceAlpha" operator="in" result="effect1_backgroundBlur_689_1372"/>
      <feBlend in="SourceGraphic" in2="effect1_backgroundBlur_689_1372" result="shape"/>
    </filter>
  </defs>
</svg>
